<svg xmlns="http://www.w3.org/2000/svg" viewBox="0 0 91.51 28.39"><defs><style>.cls-1{fill:#4cb8a9;}</style></defs><g id="Livello_2" data-name="Livello 2"><g id="Livello_1-2" data-name="Livello 1"><path class="cls-1" d="M51.06,5.71a2,2,0,0,0-.14.25,15.67,15.67,0,0,0-1.21,2.55c0,.1-.07.21-.11.31l-.16-.29a11.28,11.28,0,0,0-21,5.54V28.39H25.48V14.07a11.67,11.67,0,0,0-.36-2.73c-.05-.16-.09-.32-.14-.47a11.28,11.28,0,0,0-22.06,3.2V28.39H0V14.07A14.2,14.2,0,0,1,26.43,7l.14.25a7.55,7.55,0,0,1,.37.69,14.2,14.2,0,0,1,24-2.43Z"/><path class="cls-1" d="M91.26,25.48a11.28,11.28,0,0,1-9.63-5.63,2.54,2.54,0,0,1-.16-.28A11.21,11.21,0,0,1,80.1,14.2,15.09,15.09,0,0,0,80,12.41h0a13.94,13.94,0,0,0-1.21-4.17c0-.1-.09-.2-.13-.29-.12-.24-.24-.46-.37-.69L78.13,7A14.19,14.19,0,0,0,53.68,7l-.15.26c-.13.23-.25.45-.36.69a2.59,2.59,0,0,0-.14.29,14,14,0,0,0-1.21,4.18h0a14.46,14.46,0,0,0,0,3.56h0A14,14,0,0,0,53,20.16c0,.1.09.2.14.3s.23.46.36.69l.15.25a14.19,14.19,0,0,0,24.45,0l.15-.25c.13-.23.25-.46.37-.69A14,14,0,0,0,80,22.68h0l.16.2a14.21,14.21,0,0,0,11.09,5.5h.25V25.48ZM76.82,17h0c0,.17-.09.33-.14.5a11.29,11.29,0,0,1-21.55,0L55,17.06a11.54,11.54,0,0,1,0-5.72l.15-.49a11.28,11.28,0,0,1,21.55,0c0,.16.1.33.14.5h0a11.08,11.08,0,0,1,0,5.68Z"/></g></g></svg>