<svg xmlns="http://www.w3.org/2000/svg" viewBox="0 0 82.45 25.51"><defs><style>.cls-1{fill:#fff;}</style></defs><g id="Livello_2" data-name="Livello 2"><g id="Livello_1-2" data-name="Livello 1"><path class="cls-1" d="M45.83,5.12l-.13.23a14.57,14.57,0,0,0-1.09,2.29l-.09.28-.15-.26a10.12,10.12,0,0,0-18.88,5V25.48H22.87V12.63a10.88,10.88,0,0,0-.32-2.45c-.05-.15-.09-.29-.13-.42a10.12,10.12,0,0,0-19.8,2.87V25.48H0V12.63A12.74,12.74,0,0,1,23.72,6.27l.13.23c.11.2.23.4.33.62a12.73,12.73,0,0,1,21.5-2.18Z"/><path class="cls-1" d="M82.23,22.9a10.13,10.13,0,0,1-8.64-5.06,2.07,2.07,0,0,1-.15-.25,10.06,10.06,0,0,1-1.23-4.82,14,14,0,0,0-.09-1.6h0A12.49,12.49,0,0,0,71,7.41l-.12-.26c-.1-.21-.21-.41-.33-.62l-.13-.23a12.74,12.74,0,0,0-22,0l-.13.23c-.12.21-.23.41-.33.62a2.06,2.06,0,0,0-.12.26,12.55,12.55,0,0,0-1.09,3.76h0a14.17,14.17,0,0,0-.1,1.6,14,14,0,0,0,.1,1.6h0a12.51,12.51,0,0,0,1.09,3.74c0,.09.08.18.12.27s.21.41.33.62.09.15.13.22a12.73,12.73,0,0,0,22,0c0-.07.09-.14.13-.22s.23-.41.33-.62a13.1,13.1,0,0,0,1.22,2h0l.15.18a12.75,12.75,0,0,0,10,4.94h.22V22.9Zm-13-7.58h0c0,.15-.08.3-.13.45a10.13,10.13,0,0,1-19.34,0l-.13-.44a10.4,10.4,0,0,1-.32-2.57,10.26,10.26,0,0,1,.32-2.56c0-.16.09-.3.13-.44a10.12,10.12,0,0,1,19.34,0c0,.14.09.29.13.44h0a10,10,0,0,1,0,5.1Z"/></g></g></svg>